<svg width="32" height="32" viewBox="0 0 32 32" fill="none" xmlns="http://www.w3.org/2000/svg">
  <!-- Dragon body -->
  <path d="M16 4C14 4 12 6 12 8C12 10 14 12 16 12C18 12 20 10 20 8C20 6 18 4 16 4Z" fill="#3B82F6"/>
  <path d="M16 12C12 12 8 16 8 20C8 24 12 28 16 28C20 28 24 24 24 20C24 16 20 12 16 12Z" fill="#1E40AF"/>
  <!-- Dragon wings -->
  <path d="M8 16C6 14 4 16 4 18C4 20 6 22 8 20C10 18 8 16 8 16Z" fill="#60A5FA"/>
  <path d="M24 16C26 14 28 16 28 18C28 20 26 22 24 20C22 18 24 16 24 16Z" fill="#60A5FA"/>
  <!-- Dragon spikes -->
  <path d="M16 8C15 6 14 7 14 8C14 9 15 10 16 10C17 10 18 9 18 8C18 7 17 6 16 8Z" fill="#1E3A8A"/>
  <path d="M12 14C11 12 10 13 10 14C10 15 11 16 12 16C13 16 14 15 14 14C14 13 13 12 12 14Z" fill="#1E3A8A"/>
  <path d="M20 14C19 12 18 13 18 14C18 15 19 16 20 16C21 16 22 15 22 14C22 13 21 12 20 14Z" fill="#1E3A8A"/>
  <!-- Dragon eyes -->
  <circle cx="14" cy="18" r="1" fill="#FFFFFF"/>
  <circle cx="18" cy="18" r="1" fill="#FFFFFF"/>
  <!-- Dragon nostrils -->
  <circle cx="15" cy="22" r="0.5" fill="#FFFFFF"/>
  <circle cx="17" cy="22" r="0.5" fill="#FFFFFF"/>
  <!-- Dragon tail -->
  <path d="M16 28C14 28 12 26 10 24C8 22 6 20 4 18" stroke="#1E40AF" stroke-width="2" fill="none"/>
</svg>